<?xml version="1.0" encoding="UTF-8"?>
<svg xmlns="http://www.w3.org/2000/svg" xmlns:xlink="http://www.w3.org/1999/xlink" xmlns:svgjs="http://svgjs.com/svgjs" version="1.1" width="512" height="512" x="0" y="0" viewBox="0 0 512 512" style="enable-background:new 0 0 512 512" xml:space="preserve" class="">
  <g>
    <path xmlns="http://www.w3.org/2000/svg" d="m511.638 242.275c-.219-4.136-3.75-7.306-7.886-7.094-4.136.219-7.313 3.75-7.094 7.886.227 4.28.341 8.631.341 12.933 0 64.374-25.068 124.894-70.587 170.413s-106.038 70.587-170.412 70.587-124.894-25.068-170.413-70.587-70.587-106.039-70.587-170.413 25.068-124.894 70.587-170.413 106.039-70.587 170.413-70.587c56.807 0 111.965 20.142 155.314 56.714 42.842 36.145 71.9 86.246 81.824 141.074.738 4.076 4.639 6.784 8.716 6.044 4.076-.737 6.782-4.64 6.044-8.716-10.543-58.253-41.409-111.478-86.911-149.867-46.051-38.852-104.645-60.249-164.987-60.249-68.38 0-132.667 26.629-181.02 74.98-48.351 48.353-74.98 112.64-74.98 181.02s26.629 132.667 74.98 181.02c48.353 48.351 112.64 74.98 181.02 74.98s132.667-26.629 181.02-74.98c48.351-48.353 74.98-112.64 74.98-181.02 0-4.565-.122-9.183-.362-13.725z" fill="#20c997" data-original="#000000" style=""/>
    <path xmlns="http://www.w3.org/2000/svg" d="m83.836 133.371c-3.455-2.285-8.108-1.337-10.393 2.118-23.66 35.772-36.167 77.444-36.167 120.511 0 58.423 22.751 113.35 64.063 154.661s96.238 64.063 154.661 64.063 113.35-22.751 154.661-64.063 64.063-96.238 64.063-154.661-22.751-113.35-64.063-154.661-96.238-64.063-154.661-64.063c-31.057 0-61.067 6.378-89.197 18.957-27.171 12.15-51.23 29.441-71.508 51.395-2.811 3.042-2.623 7.788.42 10.598 3.043 2.811 7.789 2.623 10.598-.42 18.893-20.454 41.305-36.562 66.612-47.879 26.191-11.711 54.142-17.65 83.074-17.65 112.333 0 203.724 91.39 203.724 203.724s-91.39 203.723-203.723 203.723-203.724-91.391-203.724-203.724c0-40.115 11.646-78.926 33.677-112.236 2.286-3.455 1.338-8.108-2.117-10.393z" fill="#20c997" data-original="#000000" style=""/>
    <path xmlns="http://www.w3.org/2000/svg" d="m73.893 256c0 4.142 3.358 7.5 7.5 7.5h10.776c4.142 0 7.5-3.358 7.5-7.5s-3.358-7.5-7.5-7.5h-10.776c-4.143 0-7.5 3.358-7.5 7.5z" fill="#20c997" data-original="#000000" style=""/>
    <path xmlns="http://www.w3.org/2000/svg" d="m263.5 81.393c0-4.142-3.358-7.5-7.5-7.5s-7.5 3.358-7.5 7.5v174.607c0 4.142 3.358 7.5 7.5 7.5h174.607c4.142 0 7.5-3.358 7.5-7.5s-3.358-7.5-7.5-7.5h-167.107z" fill="#20c997" data-original="#000000" style=""/>
    <path xmlns="http://www.w3.org/2000/svg" d="m248.5 430.607c0 4.142 3.358 7.5 7.5 7.5s7.5-3.358 7.5-7.5v-10.776c0-4.142-3.358-7.5-7.5-7.5s-7.5 3.358-7.5 7.5z" fill="#20c997" data-original="#000000" style=""/>
    <path xmlns="http://www.w3.org/2000/svg" d="m134.851 145.458c1.464 1.464 3.384 2.197 5.303 2.197s3.839-.732 5.303-2.197c2.929-2.929 2.929-7.678 0-10.606l-7.621-7.621c-2.929-2.929-7.678-2.929-10.606 0-2.929 2.929-2.929 7.678 0 10.606z" fill="#20c997" data-original="#000000" style=""/>
    <path xmlns="http://www.w3.org/2000/svg" d="m366.542 366.542c-2.929 2.929-2.929 7.678 0 10.606l7.621 7.621c1.464 1.464 3.384 2.197 5.303 2.197s3.839-.732 5.303-2.197c2.929-2.929 2.929-7.678 0-10.606l-7.621-7.621c-2.928-2.928-7.677-2.928-10.606 0z" fill="#20c997" data-original="#000000" style=""/>
    <path xmlns="http://www.w3.org/2000/svg" d="m377.149 145.458 7.621-7.621c2.929-2.929 2.929-7.678 0-10.606-2.929-2.929-7.678-2.929-10.606 0l-7.621 7.621c-2.929 2.929-2.929 7.678 0 10.606 1.464 1.464 3.384 2.197 5.303 2.197s3.839-.733 5.303-2.197z" fill="#20c997" data-original="#000000" style=""/>
    <path xmlns="http://www.w3.org/2000/svg" d="m127.23 384.77c1.464 1.464 3.384 2.197 5.303 2.197s3.839-.732 5.303-2.197l7.621-7.621c2.929-2.929 2.929-7.678 0-10.606-2.929-2.929-7.678-2.929-10.606 0l-7.621 7.621c-2.929 2.928-2.929 7.677 0 10.606z" fill="#20c997" data-original="#000000" style=""/>
    <path xmlns="http://www.w3.org/2000/svg" d="m108.158 185.012-9.918-4.216c-3.812-1.619-8.216.157-9.836 3.968-1.62 3.812.156 8.216 3.968 9.836l9.918 4.216c.958.407 1.952.6 2.931.6 2.918 0 5.692-1.713 6.906-4.568 1.619-3.812-.157-8.216-3.969-9.836z" fill="#20c997" data-original="#000000" style=""/>
    <path xmlns="http://www.w3.org/2000/svg" d="m409.71 313.184c-3.813-1.618-8.216.157-9.836 3.968-1.62 3.812.156 8.216 3.968 9.836l9.918 4.216c.958.407 1.952.6 2.931.6 2.918 0 5.692-1.713 6.906-4.568 1.62-3.812-.156-8.216-3.968-9.836z" fill="#20c997" data-original="#000000" style=""/>
    <path xmlns="http://www.w3.org/2000/svg" d="m320.083 112.726c2.918 0 5.692-1.713 6.906-4.568l4.216-9.918c1.62-3.812-.156-8.216-3.968-9.836-3.812-1.619-8.216.157-9.836 3.968l-4.216 9.918c-1.62 3.812.156 8.216 3.968 9.836.956.407 1.951.6 2.93.6z" fill="#20c997" data-original="#000000" style=""/>
    <path xmlns="http://www.w3.org/2000/svg" d="m184.764 423.597c.958.407 1.952.6 2.931.6 2.918 0 5.692-1.713 6.906-4.568l4.216-9.918c1.62-3.812-.156-8.216-3.968-9.836s-8.216.157-9.836 3.968l-4.216 9.918c-1.621 3.811.155 8.215 3.967 9.836z" fill="#20c997" data-original="#000000" style=""/>
    <path xmlns="http://www.w3.org/2000/svg" d="m194.703 111.571c.934 0 1.884-.176 2.804-.547 3.841-1.55 5.699-5.92 4.149-9.761l-4.032-9.994c-1.549-3.841-5.919-5.698-9.761-4.149-3.841 1.55-5.699 5.92-4.149 9.761l4.032 9.994c1.178 2.922 3.989 4.696 6.957 4.696z" fill="#20c997" data-original="#000000" style=""/>
    <path xmlns="http://www.w3.org/2000/svg" d="m314.493 400.976c-3.841 1.55-5.699 5.92-4.149 9.761l4.032 9.994c1.179 2.922 3.989 4.696 6.958 4.696.934 0 1.884-.176 2.804-.547 3.841-1.55 5.699-5.92 4.149-9.761l-4.032-9.994c-1.55-3.842-5.921-5.7-9.762-4.149z" fill="#20c997" data-original="#000000" style=""/>
    <path xmlns="http://www.w3.org/2000/svg" d="m407.933 202.203c.934 0 1.884-.176 2.804-.547l9.994-4.032c3.841-1.55 5.699-5.92 4.149-9.761-1.549-3.841-5.919-5.7-9.761-4.149l-9.994 4.032c-3.841 1.55-5.699 5.92-4.149 9.761 1.178 2.922 3.989 4.696 6.957 4.696z" fill="#20c997" data-original="#000000" style=""/>
    <path xmlns="http://www.w3.org/2000/svg" d="m101.263 310.344-9.994 4.032c-3.841 1.55-5.699 5.92-4.149 9.761 1.179 2.922 3.989 4.696 6.958 4.696.934 0 1.884-.176 2.804-.547l9.994-4.032c3.841-1.55 5.699-5.92 4.149-9.761s-5.92-5.699-9.762-4.149z" fill="#20c997" data-original="#000000" style=""/>
  </g>
</svg>
